<svg id="Capa_1" data-name="Capa 1" xmlns="http://www.w3.org/2000/svg" viewBox="0 0 1178.39 360.18"><defs><style>.cls-1{fill:#fff;}</style></defs><title>marca fradelu</title><path class="cls-1" d="M64.25,316.7a25.88,25.88,0,0,1-11-.22A27.88,27.88,0,0,1,43,312q-4.52-3.21-4.08-7.08l29.63-237Q70.68,57.12,77.35,52t23-3L214.55,66.14q8.14,1.29,10.52,6.65A18.93,18.93,0,0,1,226.36,84a19.72,19.72,0,0,1-5.16,10.09q-4.08,4.31-8.8,3.44L101.18,83.74,89.59,166.19,163,176.93q8.14.85,10.52,6.22a18.77,18.77,0,0,1,1.29,11.17,20.84,20.84,0,0,1-5.16,10.3q-4.08,4.51-8.8,3.65l-75.57-9-15,111.21A7.08,7.08,0,0,1,64.25,316.7Z"/><path class="cls-1" d="M327.91,212.57a68.22,68.22,0,0,0-14-11.38,38.85,38.85,0,0,0-17-5.8,38.4,38.4,0,0,0-16.53,2.79,44.07,44.07,0,0,0-14.17,9.23,49.23,49.23,0,0,0-10.09,14,42.72,42.72,0,0,0-4.29,17l-3,61a16.28,16.28,0,0,1-5.8,10.95,18.89,18.89,0,0,1-10.73,4.51,15.88,15.88,0,0,1-11-3.44q-5.16-3.87-6.44-12.88l7.3-128.82q.42-8.16,5.58-10.95A18.7,18.7,0,0,1,239,156.53a22,22,0,0,1,10.74,4.08q4.71,3.44,4.29,8.59l.43,6.87A89.8,89.8,0,0,1,275.31,166a60.3,60.3,0,0,1,23.4-2.79,73.19,73.19,0,0,1,32.64,9,60.34,60.34,0,0,1,23.18,23.19,11.88,11.88,0,0,1,1.08,9.66,19.22,19.22,0,0,1-5.8,9.23,15.49,15.49,0,0,1-10.09,4.08Q333.92,218.58,327.91,212.57Z"/><path class="cls-1" d="M470.47,294.15a71,71,0,0,1-22.33,5.8,63.78,63.78,0,0,1-23.61-2.36,70.43,70.43,0,0,1-26.84-13.31A74.18,74.18,0,0,1,378.79,262a81.41,81.41,0,0,1-9.23-28.13,77,77,0,0,1,1.72-30.27,74.32,74.32,0,0,1,13.1-27.05A77.66,77.66,0,0,1,406.06,157a81.69,81.69,0,0,1,27.27-10.31,68,68,0,0,1,29.84,1.08,60.1,60.1,0,0,1,21.26,8.8,72.54,72.54,0,0,1,16.1,14.81q3.87-6.43,10.31-7.3a23.71,23.71,0,0,1,12.24,1.51,22.41,22.41,0,0,1,9.44,7.08q3.65,4.73,1.08,9.45L500.53,307q-2.16,7.72-7.73,9.66a17.21,17.21,0,0,1-11.38,0,22.25,22.25,0,0,1-9.66-6.23c-2.58-2.86-3.43-5.86-2.58-9Zm-68.7-82.44a42,42,0,0,0-1.29,17.82,45.89,45.89,0,0,0,5.58,16.32,46.75,46.75,0,0,0,10.74,12.88,37.07,37.07,0,0,0,15,7.51,40.81,40.81,0,0,0,17.17.65,47.16,47.16,0,0,0,29-17.39A41.17,41.17,0,0,0,485.5,234a39.71,39.71,0,0,0,1.29-17.39,46.28,46.28,0,0,0-5.58-16.32,48.53,48.53,0,0,0-10.95-13.1A42.65,42.65,0,0,0,455,179.07a40.24,40.24,0,0,0-17-.64,44.39,44.39,0,0,0-15.67,6A49.26,49.26,0,0,0,409.5,196,41.06,41.06,0,0,0,401.77,211.71Z"/><path class="cls-1" d="M661.56,301A69.75,69.75,0,0,1,616,309.61a67,67,0,0,1-28.12-10.52,79.92,79.92,0,0,1-21.26-20.39,77.64,77.64,0,0,1-12.24-26.84,76,76,0,0,1,9-58.83A80.82,80.82,0,0,1,583,170.91a75.35,75.35,0,0,1,26-13.09,67.53,67.53,0,0,1,29.84-1.51,70,70,0,0,1,21.26,6.88,77.91,77.91,0,0,1,18.25,12.88c0-.29.49-3.15,1.5-8.59s2.15-12.24,3.43-20.4,2.64-16.88,4.08-26.19,2.72-18,3.87-26.2,2.15-14.88,3-20.18,1.29-8.08,1.29-8.37a15.61,15.61,0,0,1,6.66-10.52A19.58,19.58,0,0,1,713.3,52,16.07,16.07,0,0,1,724,56.26c3.28,2.87,4.94,7.3,4.94,13.31l-36.07,240.9c-.86,5.15-3.09,8.59-6.66,10.31a16.83,16.83,0,0,1-11.16,1.29,23.4,23.4,0,0,1-10.31-5.16q-4.51-3.86-3.65-9Zm-77.72-74.28a41.56,41.56,0,0,0,1.07,17.39,50.92,50.92,0,0,0,7.3,15.46,43.45,43.45,0,0,0,12.24,11.81,40.26,40.26,0,0,0,32.85,4.93,41.6,41.6,0,0,0,15-7.73,51.86,51.86,0,0,0,11.38-12.88,41.91,41.91,0,0,0,6-16.53,44.39,44.39,0,0,0-.86-17.39A45,45,0,0,0,649.54,195a40.05,40.05,0,0,0-15.89-6A41.72,41.72,0,0,0,616.26,190a43.55,43.55,0,0,0-15,7.52,48,48,0,0,0-11.38,12.67A41.66,41.66,0,0,0,583.84,226.74Z"/><path class="cls-1" d="M864.67,236.18a13.21,13.21,0,0,1,6.22-9.87,22.26,22.26,0,0,1,11.38-3.65A16.79,16.79,0,0,1,893,225.88q4.71,3.44,3.86,11.16-1.73,19.34-10.3,33.93a84.79,84.79,0,0,1-21,24.26A77.3,77.3,0,0,1,837.62,309a74.73,74.73,0,0,1-30.71,1.72,81.8,81.8,0,0,1-29.63-10.95q-14.38-8.6-24.69-24.48a74.21,74.21,0,0,1-11.38-27.7,77.1,77.1,0,0,1,0-29.2A80.88,80.88,0,0,1,752,191.1a73.81,73.81,0,0,1,20.83-21.9,72.72,72.72,0,0,1,23-11.17,71.75,71.75,0,0,1,24.47-2.57,68.31,68.31,0,0,1,23.62,6,59.84,59.84,0,0,1,20.4,15.46,46,46,0,0,1,7.08,10.95,19,19,0,0,1,1.51,10.73q-.87,5.37-5.59,11.17t-14.17,11.8l-67.84,44.66a45.68,45.68,0,0,0,22.33,13.1,46.42,46.42,0,0,0,24.69-.22Q844,275.7,853.07,265T864.67,236.18ZM790,196.25a43.74,43.74,0,0,0-14.6,18.46,44.82,44.82,0,0,0-3.43,22.76L838.47,195Q826,183.8,813.14,186.37A60.11,60.11,0,0,0,790,196.25Z"/><path class="cls-1" d="M910.61,62.7q.42-7.73,5.8-11.38a19.9,19.9,0,0,1,11.38-3.65A20.71,20.71,0,0,1,939,50.9a11,11,0,0,1,5.58,8.8l25.33,234q.86,8.17-3.65,11.81a18.31,18.31,0,0,1-10.52,4.08,20.84,20.84,0,0,1-11.38-2.36q-5.37-2.79-5.79-7.94Z"/><path class="cls-1" d="M1027.41,177.78q3.87,39.53,9.45,61t12,31.56q6.45,10.1,12.67,11.38a30.81,30.81,0,0,0,11.38.43,35.51,35.51,0,0,0,16.1-6.44,47.82,47.82,0,0,0,11.81-12.24,46.46,46.46,0,0,0,6.66-15.67,48.34,48.34,0,0,0,.64-17.61l-10.73-59.68a16,16,0,0,1,3-12,18.51,18.51,0,0,1,9.45-6.87,15.81,15.81,0,0,1,11.38.86q5.79,2.58,8.8,10.74l21.9,127.53q1.71,7.72-2.57,11.81a17.27,17.27,0,0,1-10.31,4.72,21.87,21.87,0,0,1-11.38-1.72q-5.39-2.36-6.23-7.51l-1.71-6.44A72.24,72.24,0,0,1,1101.92,306a68.31,68.31,0,0,1-22.55,8q-21.9,3.85-36.5-3.44t-24-24.26q-9.47-16.95-15-42.51t-9.45-57.76q-.87-7.73,3.86-11.81a20.79,20.79,0,0,1,10.95-4.93,22.12,22.12,0,0,1,11.81,1.5Q1026.55,173.07,1027.41,177.78Z"/><path class="cls-1" d="M1062.92,76.05l3.6,7.3a9.2,9.2,0,0,0,6.94,5l8,1.17a9.21,9.21,0,0,1,5.11,15.71l-5.83,5.68a9.24,9.24,0,0,0-2.65,8.16l1.37,8a9.21,9.21,0,0,1-13.36,9.71l-7.2-3.79a9.23,9.23,0,0,0-8.58,0l-7.2,3.79a9.22,9.22,0,0,1-13.37-9.71l1.38-8a9.24,9.24,0,0,0-2.65-8.16l-5.83-5.68a9.21,9.21,0,0,1,5.11-15.71l8-1.17a9.2,9.2,0,0,0,6.94-5l3.6-7.3A9.21,9.21,0,0,1,1062.92,76.05Z"/></svg>